<svg width="24" height="24" viewBox="0 0 24 24" fill="none" xmlns="http://www.w3.org/2000/svg">
<path d="M21.3843 11.9954C21.3843 12.1376 21.3503 12.2891 21.2822 12.45C21.2204 12.6046 21.1029 12.7654 20.9297 12.9324L14.0181 19.4451C13.8201 19.6244 13.6315 19.7574 13.4521 19.844C13.279 19.9368 13.0903 19.9832 12.8862 19.9832C12.6079 19.9832 12.376 19.8904 12.1904 19.7048C12.0111 19.5193 11.9214 19.2874 11.9214 19.009V15.4094H4.58301C3.96452 15.4094 3.4821 15.2424 3.13574 14.9084C2.78939 14.5745 2.61621 14.1044 2.61621 13.4983V10.5203C2.61621 9.91414 2.78939 9.44409 3.13574 9.11011C3.4821 8.77612 3.96452 8.60913 4.58301 8.60913H11.9214V5.02808C11.9214 4.75594 12.0111 4.52091 12.1904 4.323C12.376 4.1189 12.6141 4.01685 12.9048 4.01685C13.1089 4.01685 13.2913 4.06323 13.4521 4.15601C13.613 4.24878 13.8016 4.39722 14.0181 4.60132L20.9297 11.0583C21.109 11.2253 21.2297 11.3892 21.2915 11.55C21.3534 11.7047 21.3843 11.8531 21.3843 11.9954Z" fill="white"/>
</svg>
