<svg width="24" height="24" viewBox="0 0 24 24" fill="none" xmlns="http://www.w3.org/2000/svg">
<path d="M2.62061 11.9954C2.62061 11.8531 2.65153 11.7047 2.71338 11.55C2.78141 11.3892 2.90202 11.2253 3.0752 11.0583L9.99609 4.60132C10.2064 4.39722 10.3919 4.24878 10.5527 4.15601C10.7197 4.06323 10.9053 4.01685 11.1094 4.01685C11.3939 4.01685 11.6258 4.1189 11.8052 4.323C11.9845 4.52091 12.0742 4.75594 12.0742 5.02808V8.60913H19.4312C20.0496 8.60913 20.529 8.77612 20.8691 9.11011C21.2093 9.44409 21.3794 9.91414 21.3794 10.5203V13.4983C21.3794 14.1044 21.2093 14.5745 20.8691 14.9084C20.529 15.2424 20.0496 15.4094 19.4312 15.4094H12.0742V19.009C12.0742 19.2874 11.9845 19.5193 11.8052 19.7048C11.632 19.8904 11.4032 19.9832 11.1187 19.9832C10.9146 19.9832 10.7228 19.9368 10.5435 19.844C10.3703 19.7574 10.1878 19.6244 9.99609 19.4451L3.0752 12.9324C2.90202 12.7654 2.78141 12.6046 2.71338 12.45C2.65153 12.2891 2.62061 12.1376 2.62061 11.9954Z" fill="white"/>
</svg>
