<svg width="24" height="24" viewBox="0 0 24 24" fill="none" xmlns="http://www.w3.org/2000/svg">
<path d="M3.99365 20.3032C3.09684 20.3032 2.42269 20.0806 1.97119 19.6353C1.52588 19.1899 1.30322 18.5282 1.30322 17.6499V8.45605C1.30322 7.5778 1.52588 6.91602 1.97119 6.4707C2.42269 6.02539 3.09684 5.80273 3.99365 5.80273H6.44287C6.78304 5.80273 7.03353 5.76253 7.19434 5.68213C7.35514 5.60173 7.5376 5.45329 7.7417 5.23682L8.45605 4.42969C8.67871 4.18848 8.91683 4.00602 9.17041 3.88232C9.43018 3.75863 9.78271 3.69678 10.228 3.69678H13.6885C14.1338 3.69678 14.4832 3.75863 14.7368 3.88232C14.9966 4.00602 15.2378 4.18848 15.4604 4.42969L16.1748 5.23682C16.3047 5.37907 16.4253 5.49349 16.5366 5.58008C16.6479 5.66048 16.7747 5.71924 16.917 5.75635C17.0592 5.78727 17.2479 5.80273 17.4829 5.80273H20.0063C20.897 5.80273 21.568 6.02539 22.0195 6.4707C22.471 6.91602 22.6968 7.5778 22.6968 8.45605V17.6499C22.6968 18.5282 22.471 19.1899 22.0195 19.6353C21.568 20.0806 20.897 20.3032 20.0063 20.3032H3.99365ZM5.979 12.6772C5.87386 12.8257 5.83984 12.971 5.87695 13.1133C5.92025 13.2555 6.03776 13.3267 6.22949 13.3267H7.17578C7.31803 14.1307 7.61491 14.842 8.06641 15.4604C8.5179 16.0728 9.08073 16.5521 9.75488 16.8984C10.4352 17.2386 11.1898 17.4087 12.0186 17.4087C12.569 17.4087 13.1071 17.3159 13.6328 17.1304C14.1585 16.9386 14.6162 16.6789 15.0059 16.3511C15.1976 16.2026 15.312 16.0356 15.3491 15.8501C15.3862 15.6584 15.3337 15.4883 15.1914 15.3398C15.0553 15.1914 14.9007 15.1234 14.7275 15.1357C14.5544 15.1419 14.3905 15.2038 14.2358 15.3213C13.8957 15.5996 13.5493 15.8068 13.1968 15.9429C12.8442 16.0789 12.4515 16.147 12.0186 16.147C11.4186 16.147 10.8651 16.0264 10.3579 15.7852C9.85693 15.5378 9.43327 15.2007 9.08691 14.7739C8.74056 14.3472 8.50553 13.8647 8.38184 13.3267H9.31885C9.50439 13.3267 9.61882 13.2555 9.66211 13.1133C9.71159 12.9648 9.68376 12.8195 9.57861 12.6772L8.18701 10.729C8.07568 10.5682 7.93652 10.4847 7.76953 10.4785C7.60872 10.4723 7.46647 10.5558 7.34277 10.729L5.979 12.6772ZM8.82715 9.77344C8.9694 9.92806 9.12402 10.0023 9.29102 9.99609C9.45801 9.98372 9.62191 9.91569 9.78271 9.79199C10.1229 9.51367 10.4692 9.30648 10.8218 9.17041C11.1743 9.02816 11.5671 8.95703 12 8.95703C12.5938 8.95703 13.1411 9.08073 13.6421 9.32812C14.1493 9.57552 14.576 9.9126 14.9224 10.3394C15.2749 10.7661 15.5161 11.2485 15.646 11.7866H14.6533C14.4678 11.7866 14.3503 11.8608 14.3008 12.0093C14.2575 12.1515 14.2915 12.2938 14.4028 12.436L15.7852 14.3843C15.8965 14.5451 16.0356 14.6286 16.2026 14.6348C16.3696 14.641 16.5119 14.5575 16.6294 14.3843L17.9932 12.436C18.0983 12.2938 18.1292 12.1515 18.0859 12.0093C18.0488 11.8608 17.9344 11.7866 17.7427 11.7866H16.8428C16.7067 10.9826 16.4098 10.2744 15.9521 9.66211C15.5007 9.04362 14.9347 8.56429 14.2544 8.22412C13.5741 7.87777 12.8226 7.70459 12 7.70459C11.4495 7.70459 10.9084 7.79736 10.3765 7.98291C9.85075 8.16846 9.39925 8.42822 9.02197 8.76221C8.82406 8.91683 8.70654 9.09001 8.66943 9.28174C8.63232 9.46729 8.6849 9.63118 8.82715 9.77344Z" fill="white"/>
</svg>
