<svg width="18" height="17" viewBox="0 0 18 17" fill="none" xmlns="http://www.w3.org/2000/svg">
<path fill-rule="evenodd" clip-rule="evenodd" d="M3.75 2.83346C3.75 2.44225 4.08579 2.12512 4.5 2.12512H7.5C7.91421 2.12512 8.25 2.44225 8.25 2.83346V14.1668C8.25 14.558 7.91421 14.8751 7.5 14.8751H4.5C4.08579 14.8751 3.75 14.558 3.75 14.1668V2.83346Z" fill="#1F212A"/>
<path fill-rule="evenodd" clip-rule="evenodd" d="M9.75 2.83346C9.75 2.44225 10.0858 2.12512 10.5 2.12512H13.5C13.9142 2.12512 14.25 2.44225 14.25 2.83346V14.1668C14.25 14.558 13.9142 14.8751 13.5 14.8751H10.5C10.0858 14.8751 9.75 14.558 9.75 14.1668V2.83346Z" fill="#1F212A"/>
</svg>
