<svg width="39" height="40" viewBox="0 0 39 40" fill="none" xmlns="http://www.w3.org/2000/svg">
<path d="M32.794 22.3705H27.5541V17.1305H32.794V22.3705ZM19.3141 33.4805C11.5041 33.4805 5.22405 26.9705 5.59405 19.0805C5.91405 12.3305 11.294 6.69054 18.014 6.07054C25.264 5.41054 31.4841 10.3905 32.7841 17.1205H38.4141C37.0541 7.14054 28.094 -0.419462 17.544 0.510538C8.52405 1.31054 1.13405 8.51054 0.124049 17.5205C-1.17595 29.1805 7.91406 39.0405 19.3041 39.0405C29.0741 39.0405 37.1341 31.7705 38.4141 22.3505H32.7841C31.5641 28.7005 26.0041 33.4805 19.3141 33.4805Z" fill="url(#paint0_linear_272_126)"/>
<defs>
<linearGradient id="paint0_linear_272_126" x1="31.324" y1="7.73724" x2="5.16976" y2="33.8914" gradientUnits="userSpaceOnUse">
<stop stop-color="#38A1DB"/>
<stop offset="0.1729" stop-color="#3D8CCC"/>
<stop offset="0.5348" stop-color="#4664B0"/>
<stop offset="0.8232" stop-color="#4B4C9E"/>
<stop offset="1" stop-color="#4D4398"/>
</linearGradient>
</defs>
</svg>
